<mxfile>
    <diagram id="GnspcjqNXz2EQJjBG0kB" name="Tech">
        <mxGraphModel dx="1522" dy="845" grid="1" gridSize="10" guides="1" tooltips="1" connect="1" arrows="1" fold="1" page="1" pageScale="1" pageWidth="827" pageHeight="1169" math="0" shadow="0">
            <root>
                <mxCell id="0"/>
                <mxCell id="1" parent="0"/>
                <mxCell id="IgVbKXMU14UcgHBGWBvJ-1" value="Typescript React Firebase Sentry" style="rounded=1;whiteSpace=wrap;html=1;" parent="1" vertex="1">
                    <mxGeometry x="130" y="220" width="120" height="60" as="geometry"/>
                </mxCell>
            </root>
        </mxGraphModel>
    </diagram>
    <diagram id="gTU7rtf6xTNn4IwHBE2L" name="UI">
        <mxGraphModel dx="3364" dy="1408" grid="1" gridSize="10" guides="1" tooltips="1" connect="1" arrows="1" fold="1" page="1" pageScale="1" pageWidth="827" pageHeight="1169" math="0" shadow="0">
            <root>
                <mxCell id="BElY9lUhcrfe2Xc1SUrb-0"/>
                <mxCell id="BElY9lUhcrfe2Xc1SUrb-1" parent="BElY9lUhcrfe2Xc1SUrb-0"/>
                <mxCell id="R35apQzZTy9ggdYSod0p-0" value="" style="rounded=1;whiteSpace=wrap;html=1;arcSize=7;strokeWidth=32;strokeColor=#C27DF0;fillColor=#EAF279;" parent="BElY9lUhcrfe2Xc1SUrb-1" vertex="1">
                    <mxGeometry x="134" y="60" width="560" height="1050" as="geometry"/>
                </mxCell>
                <mxCell id="R35apQzZTy9ggdYSod0p-4" value="5 cards" style="rounded=0;whiteSpace=wrap;html=1;rotation=-180;fontSize=31;" parent="BElY9lUhcrfe2Xc1SUrb-1" vertex="1">
                    <mxGeometry x="520" y="522.5" width="150" height="57.5" as="geometry"/>
                </mxCell>
                <mxCell id="R35apQzZTy9ggdYSod0p-12" value="10 cards" style="rounded=0;whiteSpace=wrap;html=1;fontSize=31;" parent="BElY9lUhcrfe2Xc1SUrb-1" vertex="1">
                    <mxGeometry x="520" y="580" width="150" height="57.5" as="geometry"/>
                </mxCell>
                <mxCell id="R35apQzZTy9ggdYSod0p-13" value="" style="group;shadow=1;" parent="BElY9lUhcrfe2Xc1SUrb-1" vertex="1" connectable="0">
                    <mxGeometry x="320" y="730" width="370" height="370" as="geometry"/>
                </mxCell>
                <mxCell id="R35apQzZTy9ggdYSod0p-2" value="" style="ellipse;whiteSpace=wrap;html=1;aspect=fixed;fillColor=#FFFFFF;shadow=1;" parent="R35apQzZTy9ggdYSod0p-13" vertex="1">
                    <mxGeometry width="370" height="370" as="geometry"/>
                </mxCell>
                <mxCell id="R35apQzZTy9ggdYSod0p-5" value="" style="ellipse;shape=cloud;whiteSpace=wrap;html=1;rotation=-30;" parent="R35apQzZTy9ggdYSod0p-13" vertex="1">
                    <mxGeometry x="53.08695652173913" y="56.30434782608696" width="96.52173913043478" height="64.34782608695652" as="geometry"/>
                </mxCell>
                <mxCell id="R35apQzZTy9ggdYSod0p-6" value="" style="ellipse;shape=cloud;whiteSpace=wrap;html=1;rotation=0;" parent="R35apQzZTy9ggdYSod0p-13" vertex="1">
                    <mxGeometry x="12.869565217391305" y="144.78260869565216" width="96.52173913043478" height="64.34782608695652" as="geometry"/>
                </mxCell>
                <mxCell id="R35apQzZTy9ggdYSod0p-7" value="" style="ellipse;shape=cloud;whiteSpace=wrap;html=1;rotation=0;" parent="R35apQzZTy9ggdYSod0p-13" vertex="1">
                    <mxGeometry x="173.7391304347826" y="36.19565217391304" width="96.52173913043478" height="64.34782608695652" as="geometry"/>
                </mxCell>
                <mxCell id="R35apQzZTy9ggdYSod0p-8" value="" style="ellipse;shape=cloud;whiteSpace=wrap;html=1;rotation=15;" parent="R35apQzZTy9ggdYSod0p-13" vertex="1">
                    <mxGeometry x="141.56521739130434" y="152.82608695652175" width="96.52173913043478" height="64.34782608695652" as="geometry"/>
                </mxCell>
                <mxCell id="R35apQzZTy9ggdYSod0p-9" value="" style="ellipse;shape=cloud;whiteSpace=wrap;html=1;rotation=15;" parent="R35apQzZTy9ggdYSod0p-13" vertex="1">
                    <mxGeometry x="69.17391304347827" y="257.39130434782606" width="96.52173913043478" height="64.34782608695652" as="geometry"/>
                </mxCell>
                <mxCell id="R35apQzZTy9ggdYSod0p-10" value="" style="ellipse;shape=cloud;whiteSpace=wrap;html=1;rotation=15;" parent="R35apQzZTy9ggdYSod0p-13" vertex="1">
                    <mxGeometry x="197.8695652173913" y="257.39130434782606" width="96.52173913043478" height="64.34782608695652" as="geometry"/>
                </mxCell>
                <mxCell id="R35apQzZTy9ggdYSod0p-11" value="" style="ellipse;shape=cloud;whiteSpace=wrap;html=1;rotation=105;" parent="R35apQzZTy9ggdYSod0p-13" vertex="1">
                    <mxGeometry x="262.2173913043478" y="152.82608695652175" width="96.52173913043478" height="64.34782608695652" as="geometry"/>
                </mxCell>
                <mxCell id="R35apQzZTy9ggdYSod0p-14" value="" style="group;" parent="BElY9lUhcrfe2Xc1SUrb-1" vertex="1" connectable="0">
                    <mxGeometry x="320" y="70" width="370" height="370" as="geometry"/>
                </mxCell>
                <mxCell id="R35apQzZTy9ggdYSod0p-15" value="" style="ellipse;whiteSpace=wrap;html=1;aspect=fixed;fillColor=#FFFFFF;shadow=1;" parent="R35apQzZTy9ggdYSod0p-14" vertex="1">
                    <mxGeometry width="370" height="370" as="geometry"/>
                </mxCell>
                <mxCell id="R35apQzZTy9ggdYSod0p-16" value="" style="ellipse;shape=cloud;whiteSpace=wrap;html=1;rotation=-30;" parent="R35apQzZTy9ggdYSod0p-14" vertex="1">
                    <mxGeometry x="53.08695652173913" y="56.30434782608696" width="96.52173913043478" height="64.34782608695652" as="geometry"/>
                </mxCell>
                <mxCell id="R35apQzZTy9ggdYSod0p-17" value="" style="ellipse;shape=cloud;whiteSpace=wrap;html=1;rotation=0;" parent="R35apQzZTy9ggdYSod0p-14" vertex="1">
                    <mxGeometry x="12.869565217391305" y="144.78260869565216" width="96.52173913043478" height="64.34782608695652" as="geometry"/>
                </mxCell>
                <mxCell id="R35apQzZTy9ggdYSod0p-18" value="" style="ellipse;shape=cloud;whiteSpace=wrap;html=1;rotation=0;" parent="R35apQzZTy9ggdYSod0p-14" vertex="1">
                    <mxGeometry x="173.7391304347826" y="36.19565217391304" width="96.52173913043478" height="64.34782608695652" as="geometry"/>
                </mxCell>
                <mxCell id="R35apQzZTy9ggdYSod0p-19" value="" style="ellipse;shape=cloud;whiteSpace=wrap;html=1;rotation=15;" parent="R35apQzZTy9ggdYSod0p-14" vertex="1">
                    <mxGeometry x="141.56521739130434" y="152.82608695652175" width="96.52173913043478" height="64.34782608695652" as="geometry"/>
                </mxCell>
                <mxCell id="R35apQzZTy9ggdYSod0p-20" value="" style="ellipse;shape=cloud;whiteSpace=wrap;html=1;rotation=15;" parent="R35apQzZTy9ggdYSod0p-14" vertex="1">
                    <mxGeometry x="69.17391304347827" y="257.39130434782606" width="96.52173913043478" height="64.34782608695652" as="geometry"/>
                </mxCell>
                <mxCell id="R35apQzZTy9ggdYSod0p-21" value="" style="ellipse;shape=cloud;whiteSpace=wrap;html=1;rotation=15;" parent="R35apQzZTy9ggdYSod0p-14" vertex="1">
                    <mxGeometry x="197.8695652173913" y="257.39130434782606" width="96.52173913043478" height="64.34782608695652" as="geometry"/>
                </mxCell>
                <mxCell id="R35apQzZTy9ggdYSod0p-22" value="" style="ellipse;shape=cloud;whiteSpace=wrap;html=1;rotation=105;" parent="R35apQzZTy9ggdYSod0p-14" vertex="1">
                    <mxGeometry x="262.2173913043478" y="152.82608695652175" width="96.52173913043478" height="64.34782608695652" as="geometry"/>
                </mxCell>
                <mxCell id="R35apQzZTy9ggdYSod0p-23" value="random arrangement" style="shape=callout;whiteSpace=wrap;html=1;perimeter=calloutPerimeter;position2=0;size=20;position=0.1;base=20;" parent="BElY9lUhcrfe2Xc1SUrb-1" vertex="1">
                    <mxGeometry x="660" y="800" width="150" height="60" as="geometry"/>
                </mxCell>
                <mxCell id="R35apQzZTy9ggdYSod0p-24" value="maybe track stats, or time??" style="shape=callout;whiteSpace=wrap;html=1;perimeter=calloutPerimeter;position2=0;size=20;position=0.1;base=20;" parent="BElY9lUhcrfe2Xc1SUrb-1" vertex="1">
                    <mxGeometry x="660" y="570" width="150" height="60" as="geometry"/>
                </mxCell>
                <mxCell id="R35apQzZTy9ggdYSod0p-25" value="" style="group;" parent="BElY9lUhcrfe2Xc1SUrb-1" vertex="1" connectable="0">
                    <mxGeometry x="140" y="400" width="370" height="370" as="geometry"/>
                </mxCell>
                <mxCell id="R35apQzZTy9ggdYSod0p-26" value="" style="ellipse;whiteSpace=wrap;html=1;aspect=fixed;fillColor=#FFF;shadow=1;" parent="R35apQzZTy9ggdYSod0p-25" vertex="1">
                    <mxGeometry width="370" height="370" as="geometry"/>
                </mxCell>
                <mxCell id="R35apQzZTy9ggdYSod0p-27" value="" style="ellipse;shape=cloud;whiteSpace=wrap;html=1;rotation=-30;" parent="R35apQzZTy9ggdYSod0p-25" vertex="1">
                    <mxGeometry x="53.08695652173913" y="56.30434782608696" width="96.52173913043478" height="64.34782608695652" as="geometry"/>
                </mxCell>
                <mxCell id="R35apQzZTy9ggdYSod0p-28" value="" style="ellipse;shape=cloud;whiteSpace=wrap;html=1;rotation=0;" parent="R35apQzZTy9ggdYSod0p-25" vertex="1">
                    <mxGeometry x="12.869565217391305" y="144.78260869565216" width="96.52173913043478" height="64.34782608695652" as="geometry"/>
                </mxCell>
                <mxCell id="R35apQzZTy9ggdYSod0p-29" value="" style="ellipse;shape=cloud;whiteSpace=wrap;html=1;rotation=0;" parent="R35apQzZTy9ggdYSod0p-25" vertex="1">
                    <mxGeometry x="173.7391304347826" y="36.19565217391304" width="96.52173913043478" height="64.34782608695652" as="geometry"/>
                </mxCell>
                <mxCell id="R35apQzZTy9ggdYSod0p-30" value="" style="ellipse;shape=cloud;whiteSpace=wrap;html=1;rotation=15;" parent="R35apQzZTy9ggdYSod0p-25" vertex="1">
                    <mxGeometry x="141.56521739130434" y="152.82608695652175" width="96.52173913043478" height="64.34782608695652" as="geometry"/>
                </mxCell>
                <mxCell id="R35apQzZTy9ggdYSod0p-31" value="" style="ellipse;shape=cloud;whiteSpace=wrap;html=1;rotation=15;" parent="R35apQzZTy9ggdYSod0p-25" vertex="1">
                    <mxGeometry x="69.17391304347827" y="257.39130434782606" width="96.52173913043478" height="64.34782608695652" as="geometry"/>
                </mxCell>
                <mxCell id="R35apQzZTy9ggdYSod0p-32" value="" style="ellipse;shape=cloud;whiteSpace=wrap;html=1;rotation=15;" parent="R35apQzZTy9ggdYSod0p-25" vertex="1">
                    <mxGeometry x="197.8695652173913" y="257.39130434782606" width="96.52173913043478" height="64.34782608695652" as="geometry"/>
                </mxCell>
                <mxCell id="R35apQzZTy9ggdYSod0p-33" value="" style="ellipse;shape=cloud;whiteSpace=wrap;html=1;rotation=105;" parent="R35apQzZTy9ggdYSod0p-25" vertex="1">
                    <mxGeometry x="262.2173913043478" y="152.82608695652175" width="96.52173913043478" height="64.34782608695652" as="geometry"/>
                </mxCell>
                <mxCell id="R35apQzZTy9ggdYSod0p-43" value="on match, show modal" style="shape=callout;whiteSpace=wrap;html=1;perimeter=calloutPerimeter;position2=1;size=20;position=0.8;base=20;" parent="BElY9lUhcrfe2Xc1SUrb-1" vertex="1">
                    <mxGeometry x="230" y="850" width="150" height="60" as="geometry"/>
                </mxCell>
                <mxCell id="R35apQzZTy9ggdYSod0p-44" value="" style="ellipse;shape=cloud;whiteSpace=wrap;html=1;" parent="BElY9lUhcrfe2Xc1SUrb-1" vertex="1">
                    <mxGeometry x="-470" y="416" width="580" height="314" as="geometry"/>
                </mxCell>
                <mxCell id="R35apQzZTy9ggdYSod0p-45" value="Modal has translation and animation" style="shape=callout;whiteSpace=wrap;html=1;perimeter=calloutPerimeter;position2=1;size=20;position=0.8;base=20;" parent="BElY9lUhcrfe2Xc1SUrb-1" vertex="1">
                    <mxGeometry x="-430" y="416" width="150" height="60" as="geometry"/>
                </mxCell>
                <mxCell id="R35apQzZTy9ggdYSod0p-46" value="&lt;font style=&quot;font-size: 40px&quot;&gt;Kerzen&lt;/font&gt;" style="text;html=1;strokeColor=none;fillColor=none;align=center;verticalAlign=middle;whiteSpace=wrap;rounded=0;rotation=-180;" parent="BElY9lUhcrfe2Xc1SUrb-1" vertex="1">
                    <mxGeometry x="-250" y="523" width="140" height="47" as="geometry"/>
                </mxCell>
                <mxCell id="R35apQzZTy9ggdYSod0p-47" value="&lt;font style=&quot;font-size: 40px&quot;&gt;Kerzen&lt;/font&gt;" style="text;html=1;strokeColor=none;fillColor=none;align=center;verticalAlign=middle;whiteSpace=wrap;rounded=0;rotation=0;" parent="BElY9lUhcrfe2Xc1SUrb-1" vertex="1">
                    <mxGeometry x="-250" y="570" width="140" height="47" as="geometry"/>
                </mxCell>
                <mxCell id="xknBfSz-A1gyHMAd1qF4-0" value="Flat design, maybe light shadow" style="shape=callout;whiteSpace=wrap;html=1;perimeter=calloutPerimeter;position2=1;size=20;position=0.76;base=21;" parent="BElY9lUhcrfe2Xc1SUrb-1" vertex="1">
                    <mxGeometry x="-10" y="370" width="170" height="70" as="geometry"/>
                </mxCell>
                <mxCell id="xknBfSz-A1gyHMAd1qF4-1" value="Thick yellow border" style="shape=callout;whiteSpace=wrap;html=1;perimeter=calloutPerimeter;position2=1;size=20;position=0.76;base=21;" parent="BElY9lUhcrfe2Xc1SUrb-1" vertex="1">
                    <mxGeometry x="-20" y="150" width="170" height="70" as="geometry"/>
                </mxCell>
                <mxCell id="_fk2ro6vwSdmssm8acgW-0" value="App" style="rounded=0;whiteSpace=wrap;html=1;shadow=1;strokeWidth=1;fontSize=31;verticalAlign=top;" parent="BElY9lUhcrfe2Xc1SUrb-1" vertex="1">
                    <mxGeometry x="890" y="70" width="670" height="520" as="geometry"/>
                </mxCell>
                <mxCell id="_fk2ro6vwSdmssm8acgW-2" value="Modal" style="rounded=0;whiteSpace=wrap;html=1;shadow=1;strokeWidth=1;fontSize=31;verticalAlign=top;" parent="BElY9lUhcrfe2Xc1SUrb-1" vertex="1">
                    <mxGeometry x="1140" y="130" width="180" height="110" as="geometry"/>
                </mxCell>
                <mxCell id="_fk2ro6vwSdmssm8acgW-3" value="Card" style="rounded=0;whiteSpace=wrap;html=1;shadow=1;strokeWidth=1;fontSize=31;verticalAlign=top;" parent="BElY9lUhcrfe2Xc1SUrb-1" vertex="1">
                    <mxGeometry x="1035" y="290" width="340" height="220" as="geometry"/>
                </mxCell>
                <mxCell id="_fk2ro6vwSdmssm8acgW-4" value="Stats" style="rounded=0;whiteSpace=wrap;html=1;shadow=1;strokeWidth=1;fontSize=31;verticalAlign=top;" parent="BElY9lUhcrfe2Xc1SUrb-1" vertex="1">
                    <mxGeometry x="1350" y="130" width="180" height="110" as="geometry"/>
                </mxCell>
                <mxCell id="_fk2ro6vwSdmssm8acgW-5" value="Card" style="rounded=0;whiteSpace=wrap;html=1;shadow=1;strokeWidth=1;fontSize=31;verticalAlign=top;" parent="BElY9lUhcrfe2Xc1SUrb-1" vertex="1">
                    <mxGeometry x="1055" y="307" width="340" height="220" as="geometry"/>
                </mxCell>
                <mxCell id="_fk2ro6vwSdmssm8acgW-6" value="Card" style="rounded=0;whiteSpace=wrap;html=1;shadow=1;strokeWidth=1;fontSize=31;verticalAlign=top;" parent="BElY9lUhcrfe2Xc1SUrb-1" vertex="1">
                    <mxGeometry x="1075" y="323" width="340" height="220" as="geometry"/>
                </mxCell>
                <mxCell id="_fk2ro6vwSdmssm8acgW-7" value="&amp;lt;- Flexbox -&amp;gt;" style="rounded=0;whiteSpace=wrap;html=1;shadow=1;strokeWidth=1;fontSize=31;verticalAlign=top;rotation=90;strokeColor=none;" parent="BElY9lUhcrfe2Xc1SUrb-1" vertex="1">
                    <mxGeometry x="1360" y="390" width="260" height="50" as="geometry"/>
                </mxCell>
                <mxCell id="_fk2ro6vwSdmssm8acgW-8" value="Item" style="rounded=0;whiteSpace=wrap;html=1;shadow=1;strokeWidth=1;fontSize=31;verticalAlign=top;" parent="BElY9lUhcrfe2Xc1SUrb-1" vertex="1">
                    <mxGeometry x="1110" y="380" width="160" height="70" as="geometry"/>
                </mxCell>
                <mxCell id="_fk2ro6vwSdmssm8acgW-9" value="Item" style="rounded=0;whiteSpace=wrap;html=1;shadow=1;strokeWidth=1;fontSize=31;verticalAlign=top;" parent="BElY9lUhcrfe2Xc1SUrb-1" vertex="1">
                    <mxGeometry x="1125" y="390" width="160" height="70" as="geometry"/>
                </mxCell>
                <mxCell id="_fk2ro6vwSdmssm8acgW-10" value="Item" style="rounded=0;whiteSpace=wrap;html=1;shadow=1;strokeWidth=1;fontSize=31;verticalAlign=top;" parent="BElY9lUhcrfe2Xc1SUrb-1" vertex="1">
                    <mxGeometry x="1140" y="400" width="160" height="70" as="geometry"/>
                </mxCell>
                <mxCell id="_fk2ro6vwSdmssm8acgW-11" value="Item" style="rounded=0;whiteSpace=wrap;html=1;shadow=1;strokeWidth=1;fontSize=31;verticalAlign=top;" parent="BElY9lUhcrfe2Xc1SUrb-1" vertex="1">
                    <mxGeometry x="1150" y="411" width="160" height="70" as="geometry"/>
                </mxCell>
                <mxCell id="_fk2ro6vwSdmssm8acgW-12" value="Item" style="rounded=0;whiteSpace=wrap;html=1;shadow=1;strokeWidth=1;fontSize=31;verticalAlign=top;" parent="BElY9lUhcrfe2Xc1SUrb-1" vertex="1">
                    <mxGeometry x="1165" y="420" width="160" height="70" as="geometry"/>
                </mxCell>
                <mxCell id="_fk2ro6vwSdmssm8acgW-13" value="Item" style="rounded=0;whiteSpace=wrap;html=1;shadow=1;strokeWidth=1;fontSize=31;verticalAlign=top;" parent="BElY9lUhcrfe2Xc1SUrb-1" vertex="1">
                    <mxGeometry x="1180" y="430" width="160" height="70" as="geometry"/>
                </mxCell>
                <mxCell id="_fk2ro6vwSdmssm8acgW-14" value="isModalOpen&#10;allCards&#10;activeCard&#10;generateCards()&#10;itemSelected()" style="rounded=0;shadow=1;strokeWidth=1;fontSize=12;verticalAlign=top;whiteSpace=wrap;" parent="BElY9lUhcrfe2Xc1SUrb-1" vertex="1">
                    <mxGeometry x="930" y="130" width="180" height="110" as="geometry"/>
                </mxCell>
                <mxCell id="_fk2ro6vwSdmssm8acgW-15" value="cards" style="shape=card;whiteSpace=wrap;html=1;shadow=1;strokeWidth=1;fontSize=31;" parent="BElY9lUhcrfe2Xc1SUrb-1" vertex="1">
                    <mxGeometry x="1660" y="71" width="130" height="169" as="geometry"/>
                </mxCell>
            </root>
        </mxGraphModel>
    </diagram>
    <diagram id="PqjUh5-BQDMlipAJuAat" name="Architecture">
        &#xa;
        <mxGraphModel dx="1522" dy="845" grid="1" gridSize="10" guides="1" tooltips="1" connect="1" arrows="1" fold="1" page="1" pageScale="1" pageWidth="827" pageHeight="1169" math="0" shadow="0">
            &#xa;
            <root>
                &#xa;
                <mxCell id="9mhqRe8escXwypVhMgVv-0"/>
                &#xa;
                <mxCell id="9mhqRe8escXwypVhMgVv-1" parent="9mhqRe8escXwypVhMgVv-0"/>
                &#xa;
            </root>
            &#xa;
        </mxGraphModel>
        &#xa;
    </diagram>
</mxfile>